<!DOCTYPE svg PUBLIC "-//W3C//DTD SVG 1.1//EN" "http://www.w3.org/Graphics/SVG/1.1/DTD/svg11.dtd">
<!-- Uploaded to: SVG Repo, www.svgrepo.com, Transformed by: SVG Repo Mixer Tools -->
<svg fill="#003366" height="800px" width="800px" version="1.1" id="Layer_1" xmlns="http://www.w3.org/2000/svg" xmlns:xlink="http://www.w3.org/1999/xlink" viewBox="0 0 503.607 503.607" xml:space="preserve" stroke="#003366">
<g id="SVGRepo_bgCarrier" stroke-width="0"/>
<g id="SVGRepo_tracerCarrier" stroke-linecap="round" stroke-linejoin="round"/>
<g id="SVGRepo_iconCarrier"> <g> <g> <path d="M485.703,184.656h-49.244v-15.669c0-9.89-8.013-17.903-17.903-17.903h-31.341c-9.89,0-17.903,8.013-17.903,17.903v15.669 h-50.361v-50.361h15.672c9.883,0,17.903-8.015,17.903-17.903V85.051c0-9.888-8.02-17.903-17.903-17.903h-15.672V17.903 c0-9.89-8.013-17.903-17.903-17.903h-98.489c-9.89,0-17.903,8.013-17.903,17.903v49.244h-15.669 c-9.89,0-17.903,8.013-17.903,17.903v31.341c0,9.89,8.013,17.903,17.903,17.903h15.669v50.361h-50.361v-15.669 c0-9.89-8.013-17.903-17.903-17.903H85.051c-9.89,0-17.903,8.013-17.903,17.903v15.671H17.903C8.013,184.657,0,192.671,0,202.561 v98.489c0,9.883,8.015,17.903,17.903,17.903h49.244v15.671c0,9.883,8.015,17.903,17.903,17.903h31.341 c9.888,0,17.903-8.02,17.903-17.903v-15.672h50.361v50.361h-15.669c-9.89,0-17.903,8.013-17.903,17.903v31.341 c0,9.89,8.013,17.903,17.903,17.903h15.671v49.244c0,9.89,8.013,17.903,17.903,17.903h98.489c9.883,0,17.903-8.015,17.903-17.903 v-49.244h15.671c9.883,0,17.903-8.015,17.903-17.903v-31.341c0-9.888-8.02-17.903-17.903-17.903h-15.672v-50.361h50.361v15.672 c0,9.883,8.015,17.903,17.903,17.903h31.341c9.888,0,17.903-8.02,17.903-17.903v-15.672h49.244c9.89,0,17.903-8.013,17.903-17.903 v-98.489C503.607,192.669,495.593,184.656,485.703,184.656z M201.443,17.903c0-0.619,0.498-1.116,1.116-1.116h98.489 c0.619,0,1.116,0.498,1.116,1.116v49.244H201.443V17.903z M167.87,116.392V85.051c0-0.619,0.498-1.116,1.116-1.116h24.062h117.508 h24.066c0.614,0,1.116,0.502,1.116,1.116v31.341c0,0.615-0.502,1.116-1.116,1.116h-24.066H193.049h-24.062 C168.368,117.508,167.87,117.011,167.87,116.392z M17.903,302.166c-0.615,0-1.116-0.502-1.116-1.116v-98.489 c0-0.619,0.498-1.116,1.116-1.116h49.244v100.721H17.903z M117.508,334.623c0,0.614-0.502,1.116-1.116,1.116H85.051 c-0.615,0-1.116-0.502-1.116-1.116v-24.064V193.051v-24.064c0-0.619,0.498-1.116,1.116-1.116h31.341 c0.619,0,1.116,0.498,1.116,1.116v24.062v117.508V334.623z M302.166,485.703c0,0.615-0.502,1.116-1.116,1.116h-98.489 c-0.619,0-1.116-0.498-1.116-1.116v-49.244h100.721V485.703z M335.739,387.215v31.341c0,0.615-0.502,1.116-1.116,1.116h-24.064 H193.051h-24.064c-0.619,0-1.116-0.498-1.116-1.116v-31.341c0-0.619,0.498-1.116,1.116-1.116h24.062h117.508h24.066 C335.237,386.098,335.739,386.6,335.739,387.215z M310.557,302.164c-4.636,0-8.393,3.758-8.393,8.393v58.754H201.443v-58.754 c0-4.636-3.758-8.393-8.393-8.393h-58.754V201.443h58.754c4.636,0,8.393-3.758,8.393-8.393v-58.754h100.721v58.754 c0,4.636,3.758,8.393,8.393,8.393h58.754v100.721H310.557z M419.672,334.623c0,0.614-0.502,1.116-1.116,1.116h-31.341 c-0.615,0-1.116-0.502-1.116-1.116v-24.066V193.049v-24.062c0-0.619,0.498-1.116,1.116-1.116h31.341 c0.619,0,1.116,0.498,1.116,1.116v24.062v117.508V334.623z M486.82,301.048c0,0.619-0.498,1.116-1.116,1.116h-49.244V201.443 h49.244c0.619,0,1.116,0.498,1.116,1.116V301.048z"/> </g> </g> </g>
</svg>