<!DOCTYPE svg PUBLIC "-//W3C//DTD SVG 1.1//EN" "http://www.w3.org/Graphics/SVG/1.1/DTD/svg11.dtd">
<!-- Uploaded to: SVG Repo, www.svgrepo.com, Transformed by: SVG Repo Mixer Tools -->
<svg fill=" #003366" height="800px" width="800px" version="1.1" id="Layer_1" xmlns="http://www.w3.org/2000/svg" xmlns:xlink="http://www.w3.org/1999/xlink" viewBox="0 0 503.607 503.607" xml:space="preserve" stroke=" #003366">
<g id="SVGRepo_bgCarrier" stroke-width="0"/>
<g id="SVGRepo_tracerCarrier" stroke-linecap="round" stroke-linejoin="round"/>
<g id="SVGRepo_iconCarrier"> <g> <g> <path d="M485.703,33.573h-49.244V17.904c0-9.89-8.013-17.903-17.903-17.903h-31.341c-9.89,0-17.903,8.013-17.903,17.903v15.669 H134.295V17.904c0-9.89-8.013-17.903-17.903-17.903H85.051c-9.89,0-17.903,8.013-17.903,17.903v15.671H17.903 C8.013,33.575,0,41.588,0,51.478v98.489c0,9.89,8.013,17.903,17.903,17.903h49.244v15.671c0,9.89,8.013,17.903,17.903,17.903 h31.341c9.89,0,17.903-8.013,17.903-17.903v-15.672h50.361v201.443h-15.669c-9.89,0-17.903,8.013-17.903,17.903v31.341 c0,9.89,8.013,17.903,17.903,17.903h15.671v49.244c0,9.89,8.013,17.903,17.903,17.903h98.489c9.883,0,17.903-8.015,17.903-17.903 v-49.244h15.671c9.883,0,17.903-8.015,17.903-17.903v-31.341c0-9.888-8.02-17.903-17.903-17.903h-15.672V167.868h50.361v15.672 c0,9.89,8.013,17.903,17.903,17.903h31.341c9.89,0,17.903-8.013,17.903-17.903v-15.672h49.244c9.89,0,17.903-8.013,17.903-17.903 V51.476C503.607,41.586,495.593,33.573,485.703,33.573z M17.903,151.083c-0.619,0-1.116-0.498-1.116-1.116V51.478 c0-0.619,0.498-1.116,1.116-1.116h49.244v100.721H17.903z M117.508,183.54c0,0.619-0.498,1.116-1.116,1.116H85.051 c-0.619,0-1.116-0.498-1.116-1.116v-24.064V41.968V17.904c0-0.619,0.498-1.116,1.116-1.116h31.341 c0.619,0,1.116,0.498,1.116,1.116v24.062v117.508V183.54z M302.166,485.702c0,0.615-0.502,1.116-1.116,1.116h-98.489 c-0.619,0-1.116-0.498-1.116-1.116v-49.244h100.721V485.702z M335.739,387.214v31.341c0,0.615-0.502,1.116-1.116,1.116h-24.064 H193.051h-24.064c-0.619,0-1.116-0.498-1.116-1.116v-31.341c0-0.619,0.498-1.116,1.116-1.116h24.062h117.508h24.066 C335.237,386.097,335.739,386.599,335.739,387.214z M310.557,151.081H268.59c-4.636,0-8.393,3.758-8.393,8.393 s3.758,8.393,8.393,8.393h33.574v201.443H201.443V167.868h16.787c4.636,0,8.393-3.758,8.393-8.393s-3.758-8.393-8.393-8.393 h-25.18h-58.754V50.36h235.016v100.721H310.557z M419.672,183.54c0,0.619-0.498,1.116-1.116,1.116h-31.341 c-0.619,0-1.116-0.498-1.116-1.116v-24.066V41.966V17.904c0-0.619,0.498-1.116,1.116-1.116h31.341 c0.619,0,1.116,0.498,1.116,1.116v24.062v117.508V183.54z M486.82,149.965c0,0.619-0.498,1.116-1.116,1.116h-49.244V50.36h49.244 c0.619,0,1.116,0.498,1.116,1.116V149.965z"/> </g> </g> </g>
</svg>